<?xml version="1.0" standalone="no"?>
<!DOCTYPE svg PUBLIC "-//W3C//DTD SVG 20010904//EN"
 "http://www.w3.org/TR/2001/REC-SVG-20010904/DTD/svg10.dtd">
<svg version="1.0" xmlns="http://www.w3.org/2000/svg"
 width="367.000000pt" height="394.000000pt" viewBox="0 0 367.000000 394.000000"
 preserveAspectRatio="xMidYMid meet">

<g transform="translate(0.000000,394.000000) scale(0.100000,-0.100000)"
fill="#000000" stroke="none">
<path d="M0 1970 l0 -1970 1835 0 1835 0 0 1970 0 1970 -1835 0 -1835 0 0
-1970z m2066 1525 c308 -46 594 -189 824 -412 273 -263 436 -613 458 -981 22
-358 -64 -675 -261 -967 -86 -126 -275 -314 -402 -398 -172 -114 -340 -184
-549 -229 -135 -30 -444 -32 -579 -5 -208 42 -431 138 -604 260 -113 80 -271
238 -352 352 -73 104 -168 294 -206 410 -100 312 -98 639 5 948 177 530 629
920 1177 1016 136 24 348 27 489 6z"/>
<path d="M1627 3364 c-117 -18 -223 -48 -329 -94 -107 -46 -239 -120 -246
-138 -3 -9 74 -92 192 -211 l198 -198 70 28 c113 46 214 62 352 56 125 -5 187
-19 289 -65 l59 -25 209 209 210 210 -82 48 c-273 163 -611 229 -922 180z
m251 -65 l32 -60 -20 -26 c-25 -33 -25 -54 1 -87 43 -54 139 -15 126 51 -5 26
-1 31 44 56 l49 28 0 -26 c0 -36 -49 -227 -62 -243 -8 -9 -60 -12 -222 -10
l-211 3 -34 128 c-22 80 -31 131 -25 137 6 6 25 0 52 -16 36 -22 42 -30 42
-60 0 -66 69 -97 117 -52 27 25 29 59 7 97 -15 25 -14 29 17 84 18 31 38 57
44 57 5 0 25 -28 43 -61z m175 -360 c6 -9 7 -24 4 -33 -6 -15 -29 -16 -224
-14 -200 3 -218 4 -221 21 -2 10 2 25 9 33 19 23 417 16 432 -7z"/>
<path d="M2762 2581 l-211 -211 25 -54 c13 -29 34 -91 45 -137 30 -119 23
-318 -15 -432 -14 -43 -33 -91 -41 -106 l-14 -27 209 -209 c115 -115 211 -207
213 -205 93 113 198 368 232 564 20 117 20 345 -1 467 -28 169 -113 386 -202
518 l-30 43 -210 -211z m301 -358 c-17 -30 -29 -39 -57 -43 -50 -7 -76 -32
-76 -74 0 -25 7 -40 26 -55 33 -26 54 -26 86 -2 l24 20 62 -35 c34 -19 62 -39
62 -44 0 -5 -28 -24 -62 -42 -60 -31 -64 -32 -80 -16 -28 28 -82 23 -107 -8
-12 -15 -21 -34 -21 -44 0 -10 9 -29 21 -44 15 -20 29 -26 57 -26 34 0 40 -4
62 -45 13 -24 21 -47 17 -51 -6 -7 -219 42 -249 58 -16 8 -18 29 -18 223 l0
214 43 12 c148 41 213 55 221 48 6 -6 2 -23 -11 -46z m-285 -230 l-3 -218 -27
-3 -28 -3 0 220 0 221 30 0 30 0 -2 -217z"/>
<path d="M642 2693 c-180 -301 -235 -697 -146 -1040 31 -121 100 -286 157
-375 l42 -68 199 199 198 199 -30 78 c-45 117 -56 186 -55 319 1 98 6 136 27
208 15 49 36 107 47 129 l21 41 -198 198 c-110 110 -201 199 -205 199 -3 0
-29 -39 -57 -87z m86 -449 c59 -15 113 -31 120 -37 9 -7 12 -63 12 -218 0
-188 -2 -209 -17 -217 -30 -16 -252 -66 -259 -59 -10 9 45 99 57 92 21 -14 77
16 90 47 27 65 -41 119 -106 84 l-34 -19 -53 30 c-29 17 -54 37 -56 44 -1 8
22 27 57 45 57 29 59 30 81 12 31 -25 66 -23 95 7 32 31 32 69 -1 102 -19 19
-32 24 -54 20 -26 -6 -31 -2 -54 38 -14 24 -26 46 -26 49 0 12 42 6 148 -20z
m217 -254 l0 -215 -30 0 -30 0 -3 205 c-1 112 0 211 3 218 3 8 16 12 32 10
l28 -3 0 -215z"/>
<path d="M1712 2729 c-89 -13 -214 -62 -291 -111 -349 -228 -446 -692 -216
-1038 90 -135 236 -246 390 -297 116 -37 288 -44 405 -14 146 37 221 81 341
200 90 90 112 119 148 191 59 122 75 194 76 330 0 122 -12 188 -52 284 -86
207 -276 375 -492 435 -89 25 -223 33 -309 20z m565 -542 l100 -132 -274 -253
c-241 -223 -276 -252 -290 -240 -54 44 -535 487 -535 493 0 4 44 65 97 136
l98 129 352 0 352 0 100 -133z"/>
<path d="M1890 2272 c0 -4 38 -45 85 -92 82 -81 84 -83 93 -59 6 13 21 52 35
86 14 34 22 64 19 67 -8 9 -232 7 -232 -2z"/>
<path d="M1542 2258 c3 -7 15 -43 27 -80 13 -38 26 -68 29 -68 4 0 43 36 87
80 l80 80 -114 0 c-86 0 -112 -3 -109 -12z"/>
<path d="M1425 2177 c-33 -44 -61 -84 -63 -89 -2 -4 39 -8 92 -8 l95 0 -30 87
c-16 47 -30 87 -31 89 -2 1 -30 -34 -63 -79z"/>
<path d="M1735 2170 l-90 -90 180 0 180 0 -90 90 c-49 50 -90 90 -90 90 0 0
-41 -40 -90 -90z"/>
<path d="M2154 2205 c-7 -19 -21 -51 -29 -71 -8 -20 -15 -40 -15 -45 0 -5 43
-9 95 -9 l95 0 -61 80 c-34 44 -63 80 -66 80 -2 0 -11 -16 -19 -35z"/>
<path d="M1722 1835 l102 -204 103 202 c57 111 103 203 103 205 0 1 -92 2
-205 2 l-205 0 102 -205z"/>
<path d="M1380 2027 c0 -2 79 -77 175 -166 96 -89 175 -159 175 -156 0 3 -36
77 -80 165 l-80 160 -95 0 c-52 0 -95 -2 -95 -3z"/>
<path d="M2000 1870 c-44 -88 -80 -163 -80 -166 0 -7 127 107 265 239 l90 86
-97 1 -98 0 -80 -160z"/>
<path d="M2157 1244 c-66 -34 -184 -63 -287 -70 -106 -8 -240 14 -352 57 l-80
31 -200 -198 -199 -199 27 -22 c39 -31 209 -118 290 -149 274 -104 620 -110
908 -17 112 36 278 115 331 157 l30 24 -206 206 c-114 113 -208 206 -210 206
-2 -1 -26 -12 -52 -26z m-107 -174 l0 -30 -220 0 -220 0 0 30 0 30 220 0 220
0 0 -30z m4 -92 c22 -55 59 -217 52 -233 -4 -12 -13 -11 -49 11 -37 23 -43 30
-39 55 5 37 -35 79 -77 79 -57 0 -92 -79 -52 -119 18 -18 17 -20 -15 -77 -18
-33 -38 -59 -44 -59 -6 0 -25 27 -43 59 -32 58 -33 60 -15 78 42 42 9 118 -51
120 -45 1 -86 -42 -78 -82 5 -23 0 -29 -38 -50 -24 -13 -48 -21 -52 -17 -8 9
45 236 60 255 7 9 63 12 219 12 l209 0 13 -32z"/>
</g>
</svg>
